# AST/ASF file generated using VICON BodyLanguage
# -----------------------------------------------
:version 1.10
:name VICON
:units
  mass 1.0
  length 0.45
  angle deg
:documentation
   .ast/.asf automatically generated from VICON data using
   VICON BodyBuilder and BodyLanguage model FoxedUp or BRILLIANT.MOD
:root
   order TX TY TZ RX RY RZ
   axis XYZ
   position 0 0 0  
   orientation 0 0 0 
:bonedata
  begin
     id 1 
     name lhipjoint
     direction 0.588788 -0.725889 0.355548 
     length 2.37778 
     axis 0 0 0  XYZ
  end
  begin
     id 2 
     name lfemur
     direction 0.34202 -0.939693 0  
     length 6.86393  
     axis 0 0 20  XYZ
    dof rx ry rz
    limits (-160.0 20.0)
           (-70.0 70.0)
           (-60.0 70.0)
  end
  begin
     id 3 
     name ltibia
     direction 0.34202 -0.939693 0   
     length 7.32851   
     axis 0 0 20   XYZ
    dof rx
    limits (-10.0 170.0)
  end
  begin
     id 4 
     name lfoot
     direction 0.0626533 -0.172138 0.983078   
     length 1.98929   
     axis -90 7.62852e-016 20   XYZ
    dof rx rz
    limits (-45.0 90.0)
           (-70.0 20.0)
  end
  begin
     id 5 
     name ltoes
     direction 1.53647e-011 -4.21734e-011 1   
     length 1.00479   
     axis -90 7.62852e-016 20   XYZ
    dof rx
    limits (-90.0 20.0)
  end
  begin
     id 6 
     name rhipjoint
     direction -0.59141 -0.724168 0.354705   
     length 2.38343  
     axis 0 0 0  XYZ 
  end
  begin
     id 7 
     name rfemur
     direction -0.34202 -0.939693 0   
     length 6.95589   
     axis 0 0 -20   XYZ
    dof rx ry rz
    limits (-160.0 20.0)
           (-70.0 70.0)
           (-70.0 60.0)
  end
  begin
     id 8 
     name rtibia
     direction -0.34202 -0.939693 0   
     length 7.32327   
     axis 0 0 -20   XYZ
    dof rx
    limits (-10.0 170.0)
 end
 begin
     id 9 
     name rfoot
     direction -0.0660461 -0.18146 0.981178   
     length 1.85272  
     axis -90 -7.62852e-016 -20   XYZ
    dof rx rz
    limits (-45.0 90.0)
           (-20.0 70.0)
  end
  begin
     id 10 
     name rtoes
     direction -1.53586e-011 -4.21988e-011 1   
     length 0.93746   
     axis -90 -7.62852e-016 -20   XYZ
    dof rx
    limits (-90.0 20.0)
  end
  begin
     id 11 
     name lowerback
     direction -0.0107982 0.991059 0.13299   
     length 1.98691   
     axis 0 0 0   XYZ
    dof rx ry rz
    limits (-20.0 45.0)
           (-30.0 30.0)
           (-30.0 30.0)
  end
  begin
     id 12 
     name upperback
     direction 0.0076296 0.999916 0.0104576   
     length 1.99501   
     axis 0 0 0   XYZ
    dof rx ry rz
    limits (-20.0 45.0)
           (-30.0 30.0)
           (-30.0 30.0)
  end
  begin
     id 13 
     name thorax
     direction 0.01176 0.998615 -0.0512909   
     length 2.03144   
     axis 0 0 0   XYZ
    dof rx ry rz
    limits (-20.0 45.0)
           (-30.0 30.0)
           (-30.0 30.0)
  end
  begin
     id 14 
     name lowerneck
     direction -0.0171909 0.999644 0.0204011   
     length 1.71818   
     axis 0 0 0   XYZ
    dof rx ry rz
    limits (-20.0 45.0)
           (-30.0 30.0)
           (-30.0 30.0)
  end
  begin
     id 15 
     name upperneck
     direction 0.0250902 0.997482 -0.0663316   
     length 1.66199   
     axis 0 0 0   XYZ
    dof rx ry rz
    limits (-20.0 45.0)
           (-30.0 30.0)
           (-30.0 30.0)
  end
  begin
     id 16
     name head
     direction 0.00881535 0.99956 -0.0283365  
     length 1.81545  
     axis 0 0 0   XYZ
    dof rx ry rz
    limits (-20.0 45.0)
           (-30.0 30.0)
           (-30.0 30.0)
  end
  begin
     id 17 
     name lclavicle
     direction 0.840411 0.486876 -0.238035  
     length 3.30409  
     axis 0 0 0   XYZ
    dof ry rz
    limits (-20.0 10.0)
           (0.0 20.0)
  end
  begin
     id 18 
     name lhumerus
     direction 1 -4.48977e-011 -5.16239e-027   
     length 4.62672   
     axis 180 -30 -90   XYZ
    dof rx ry rz
    limits (-60.0 90.0)
           (-90.0 90.0)
           (-90.0 90.0)
  end
  begin
     id 19
     name lradius
     direction 1 -4.48977e-011 -8.71171e-027   
     length 3.11018   
     axis 180 -30 -90   XYZ
    dof rx
    limits (-10.0 170.0)
  end
  begin
     id 20
     name lwrist
     direction 1 -4.48912e-011 -1.03764e-026   
     length 1.55509   
     axis 9.09556e-015 90 90   XYZ
    dof ry
    limits (-180.0 0.0)
 end
  begin
     id 21 
     name lhand
     direction 1 -4.49072e-011 -2.07528e-026   
     length 0.743834   
     axis 1.3242e-014 90 90   XYZ
    dof rx rz
    limits (-90.0 90.0)
           (-45.0 45.0)
  end
  begin
     id 22 
     name lfingers
     direction 1 -4.48909e-011 -4.15056e-026   
     length 0.599698   
     axis 2.64841e-014 90 90   XYZ
    dof rx
    limits (0.0 90.0)
  end
  begin
     id 23
     name lthumb
     direction 0.707107 -6.35013e-011 0.707107   
     length 0.86105   
     axis -90 45 2.85299e-015   XYZ
    dof rx rz
    limits (-45.0 45.0)
           (-45.0 45.0)
  end
  begin
     id 24 
     name rclavicle
     direction -0.835208 0.500237 -0.228452   
     length 3.2716  
     axis 0 0 0   XYZ 
    dof ry rz
    limits (-10.0 20.0)
           (-20.0 0.0)
  end
  begin
     id 25 
     name rhumerus
     direction -1 -4.48978e-011 -5.1953e-028  
     length 4.55919   
     axis 180 30 90   XYZ
    dof rx ry rz
    limits (-90.0 60.0)
           (-90.0 90.0)
           (-90.0 90.0)
  end
  begin
     id 26 
     name rradius
     direction -1 -4.48961e-011 -5.99546e-027   
     length 3.22748   
     axis 180 30 90   XYZ
    dof rx
    limits (-10.0 170.0)
  end
  begin
     id 27 
     name rwrist
     direction -1 -4.48986e-011 -1.03764e-026   
     length 1.61374   
     axis 9.09556e-015 -90 -90   XYZ
    dof ry
    limits (-180.0 0.0)
  end
  begin
     id 28
     name rhand
     direction -1 -4.4899e-011 -2.07528e-026   
     length 0.700882   
     axis 1.3242e-014 -90 -90   XYZ
    dof rx rz
    limits (-90.0 90.0)
           (-45.0 45.0)
  end
  begin
     id 29
     name rfingers
     direction -1 -4.48991e-011 -4.15056e-026   
     length 0.565069   
     axis 2.64841e-014 -90 -90   XYZ
    dof rx
    limits (0.0 90.0)
  end
  begin
     id 30
     name rthumb
     direction -0.707107 -6.34804e-011 0.707107   
     length 0.811329   
     axis -90 -45 -2.85299e-015   XYZ
    dof rx rz
    limits (-45.0 45.0)
           (-45.0 45.0)
  end
:hierarchy
  begin
    root lhipjoint rhipjoint lowerback
    lhipjoint lfemur
    lfemur ltibia
    ltibia lfoot
    lfoot ltoes
    rhipjoint rfemur
    rfemur rtibia
    rtibia rfoot
    rfoot rtoes
    lowerback upperback
    upperback thorax
    thorax lowerneck lclavicle rclavicle
    lowerneck upperneck
    upperneck head
    lclavicle lhumerus
    lhumerus lradius
    lradius lwrist
    lwrist lhand lthumb
    lhand lfingers
    rclavicle rhumerus
    rhumerus rradius
    rradius rwrist
    rwrist rhand rthumb
    rhand rfingers
  end

#!OML:ASF F:\VICON\USERDATA\INSTALL\SteveWalk\SteveWalk.ASF
:FULLY-SPECIFIED
:DEGREES
127
root -0.102547 15.933 -16.6977 19.0673 4.40454 0.613718
lowerback -16.3223 -2.97044 3.16811
upperback -4.78699 -4.55052 2.4546
thorax 3.98093 -2.23769 -0.0790896
lowerneck -2.90391 0.0209833 0.821533
upperneck 2.71897 0.0406932 -1.45425
head 1.32528 0.00353206 -0.586392
rclavicle -1.20016e-014 -2.94201e-014
rhumerus -93.5672 -32.9409 3.19721
rradius 11.5667
rwrist 51.8454
rhand -13.9502 -38.4537
rfingers 7.12502
rthumb 12.1771 -68.0792
lclavicle -1.20016e-014 -2.94201e-014
lhumerus -13.8083 -0.197831 78.0253
lradius 58.7954
lwrist 17.4373
lhand -26.4915 -18.5909
lfingers 7.12502
lthumb 0.0709992 11.3888
rfemur -53.924 -4.80322 24.9145
rtibia 36.0982
rfoot -6.12987 2.52527
rtoes -25.895
lfemur -3.37812 -0.336433 -17.9332
ltibia 37.8801
lfoot 5.39838 -11.9394
ltoes -14.7526
128
root -0.111051 15.9489 -16.4614 18.9814 4.39148 0.18161
lowerback -16.0652 -2.79708 3.72714
upperback -4.81738 -4.40511 2.62316
thorax 3.78458 -2.16857 -0.171113
lowerneck -3.11074 0.0399958 0.842306
upperneck 2.70187 0.0661757 -1.52182
head 1.35649 0.0145499 -0.610923
rclavicle -1.2424e-015 -3.18055e-015
rhumerus -92.1319 -33.5234 0.775883
rradius 11.6686
rwrist 49.9463
rhand -14.0359 -38.5082
rfingers 7.12502
rthumb 12.0945 -68.1386
lclavicle -1.2424e-015 -3.18055e-015
lhumerus -14.8807 -0.108643 78.3593
lradius 58.9586
lwrist 17.8312
lhand -26.2049 -18.4424
lfingers 7.12502
lthumb 0.347808 11.5371
rfemur -53.4611 -4.94429 25.6493
rtibia 37.0015
rfoot -6.78433 3.33543
rtoes -22.116
lfemur -4.77688 -0.558764 -17.4376
ltibia 40.9612
lfoot 8.26 -12.2735
ltoes -15.0697
129
root -0.119378 15.9728 -16.2217 18.7569 4.30031 -0.00527835
lowerback -15.8366 -2.64776 3.96706
upperback -4.7075 -4.24203 2.69535
thorax 3.77042 -2.08682 -0.190689
lowerneck -3.34365 -0.00585174 0.867153
upperneck 2.70046 0.00420879 -1.56874
head 1.39615 -0.0178754 -0.631774
rclavicle 3.43897e-014 -1.11319e-014
rhumerus -90.3829 -34.2628 -2.26434
rradius 11.8002
rwrist 47.6685
rhand -14.0178 -38.3389
rfingers 7.12502
rthumb 12.112 -67.9683
lclavicle 3.43897e-014 -1.11319e-014
lhumerus -15.7932 -0.166352 78.7573
lradius 58.9534
lwrist 18.2142
lhand -26.3403 -18.2728
lfingers 7.12502
lthumb 0.217028 11.7068
rfemur -52.6823 -5.28407 26.1685
rtibia 37.7179
rfoot -7.59576 3.76671
rtoes -19.5149
lfemur -5.97366 -0.775157 -17.2572
ltibia 43.9744
lfoot 10.8116 -12.6575
ltoes -16.797
130
root -0.130683 16.0105 -15.9818 18.4964 4.10386 -0.317468
lowerback -15.6304 -2.43611 4.24479
upperback -4.60133 -4.00409 2.79708
thorax 3.76658 -1.96755 -0.188761
lowerneck -3.26209 -0.114797 0.803975
upperneck 2.52641 -0.139133 -1.58904
head 1.32463 -0.0897114 -0.629387
rclavicle -4.02539e-015 1.43125e-014
rhumerus -89.2963 -35.0424 -4.0208
rradius 11.8742
rwrist 46.4952
rhand -14.0087 -37.8769
rfingers 7.12502
rthumb 12.1207 -67.5058
lclavicle -4.02539e-015 1.43125e-014
lhumerus -16.7177 -0.248962 79.2856
lradius 58.7544
lwrist 18.3951
lhand -26.844 -17.8496
lfingers 7.12502
lthumb -0.269423 12.13
rfemur -51.7266 -5.72376 26.9115
rtibia 38.2169
rfoot -8.57616 4.40685
rtoes -18.2953
lfemur -7.23251 -0.949949 -16.9813
ltibia 46.9657
lfoot 14.0965 -12.2305
ltoes -16.2836
131
root -0.147634 16.0518 -15.7447 18.3284 4.04619 -0.564218
lowerback -15.4934 -2.27555 4.43495
upperback -4.60349 -3.81657 2.88222
thorax 3.68932 -1.87588 -0.165428
lowerneck -2.98771 -0.203737 0.767481
upperneck 2.44043 -0.255269 -1.61472
head 1.24824 -0.147172 -0.632005
rclavicle 2.01269e-014 -2.38542e-015
rhumerus -87.3019 -35.5517 -7.45377
rradius 12.0054
rwrist 44.4054
rhand -14.1567 -37.3671
rfingers 7.12502
rthumb 11.978 -67.0044
lclavicle 2.01269e-014 -2.38542e-015
lhumerus -17.7331 -0.416971 79.8474
lradius 58.2514
lwrist 18.3068
lhand -27.1612 -17.5999
lfingers 7.12502
lthumb -0.575788 12.3791
rfemur -50.8232 -6.22538 27.5702
rtibia 38.5591
rfoot -9.57252 5.02584
rtoes -18.7007
lfemur -8.70067 -1.16178 -16.6869
ltibia 49.9022
lfoot 17.3898 -11.3113
ltoes -15.1519
132
root -0.170215 16.0853 -15.519 18.1433 4.0535 -0.861831
lowerback -15.2615 -2.12464 4.55608
upperback -4.6208 -3.6243 2.98472
thorax 3.55133 -1.78349 -0.0808343
lowerneck -2.92191 -0.248199 0.847192
upperneck 2.64111 -0.31544 -1.61308
head 1.29966 -0.176661 -0.646856
rclavicle 3.27995e-014 -3.10104e-014
rhumerus -85.2164 -36.0863 -11.0799
rradius 12.1928
rwrist 42.4415
rhand -14.4177 -37.0762
rfingers 7.12502
rthumb 11.7264 -66.728
lclavicle 3.27995e-014 -3.10104e-014
lhumerus -18.5325 -0.68277 80.4239
lradius 57.3775
lwrist 18.2656
lhand -27.1903 -17.7625
lfingers 7.12502
lthumb -0.603927 12.2164
rfemur -49.8476 -6.52502 28.148
rtibia 38.7551
rfoot -10.4223 5.19972
rtoes -18.8678
lfemur -10.2128 -1.1339 -16.2828
ltibia 52.7665
lfoot 18.6164 -10.7442
ltoes -17.8483
133
root -0.19155 16.1124 -15.2991 18.0992 3.95968 -1.00607
lowerback -15.0406 -1.93253 4.49406
upperback -4.72299 -3.34448 3.05406
thorax 3.34119 -1.65027 0.0864573
lowerneck -3.2356 -0.298293 0.770742
upperneck 3.21938 -0.378102 -1.49749
head 1.53763 -0.20923 -0.603876
rclavicle 1.02871e-014 -2.22639e-014
rhumerus -83.0999 -36.4645 -14.5693
rradius 12.4005
rwrist 40.2981
rhand -14.3416 -37.1547
rfingers 7.12502
rthumb 11.7997 -66.8022
lclavicle 1.02871e-014 -2.22639e-014
lhumerus -19.267 -1.26825 81.0692
lradius 56.4346
lwrist 18.7054
lhand -27.141 -17.5044
lfingers 7.12502
lthumb -0.556277 12.4746
rfemur -48.9855 -6.60063 28.4226
rtibia 38.9127
rfoot -10.8987 5.01508
rtoes -16.5889
lfemur -11.8057 -0.890756 -16.1186
ltibia 55.4583
lfoot 17.6272 -10.5024
ltoes -22.792
134
root -0.210142 16.1396 -15.081 18.1455 3.89688 -1.21197
lowerback -14.9423 -1.72398 4.58171
upperback -4.82631 -3.07268 3.12752
thorax 3.18588 -1.51945 0.166836
lowerneck -3.66429 -0.347413 0.499689
upperneck 3.74576 -0.435321 -1.27109
head 1.78216 -0.239226 -0.493337
rclavicle 1.49089e-016 1.59028e-014
rhumerus -81.196 -36.9194 -17.3795
rradius 12.5233
rwrist 38.7812
rhand -13.9802 -37.3251
rfingers 7.12502
rthumb 12.1482 -66.9524
lclavicle 1.49089e-016 1.59028e-014
lhumerus -19.9652 -1.78444 81.7642
lradius 55.3071
lwrist 18.9566
lhand -26.9626 -17.2429
lfingers 7.12502
lthumb -0.38398 12.7365
rfemur -48.1922 -6.53932 28.6911
rtibia 39.0435
rfoot -11.5693 4.55767
rtoes -15.9908
lfemur -13.4187 -0.606953 -15.8882
ltibia 57.9605
lfoot 16.2252 -10.4188
ltoes -23.7872
135
root -0.222413 16.1673 -14.8646 18.2549 3.97047 -1.38026
lowerback -15.0015 -1.5568 4.70015
upperback -4.85858 -2.87342 3.18573
thorax 3.18571 -1.42059 0.194191
lowerneck -4.06553 -0.395842 0.22585
upperneck 4.14164 -0.493918 -0.997677
head 1.98263 -0.268034 -0.366252
rclavicle 2.94201e-014 -1.11319e-014
rhumerus -79.7244 -37.8584 -19.0939
rradius 12.5155
rwrist 38.1008
rhand -14.4449 -36.1889
rfingers 7.12502
rthumb 11.7001 -65.8422
lclavicle 2.94201e-014 -1.11319e-014
lhumerus -20.6277 -1.74627 82.4952
lradius 54.0375
lwrist 18.5625
lhand -26.6028 -17.5455
lfingers 7.12502
lthumb -0.0364143 12.4343
rfemur -47.47 -6.64805 28.9404
rtibia 39.1348
rfoot -12.9232 4.09607
rtoes -18.8908
lfemur -15.0581 -0.485108 -15.6685
ltibia 60.2956
lfoot 15.5444 -10.0526
ltoes -15.8462
136
root -0.236696 16.2032 -14.6485 18.3676 4.17995 -1.47543
lowerback -15.2276 -1.48344 4.70252
upperback -4.83467 -2.79622 3.25109
thorax 3.33764 -1.37819 0.267119
lowerneck -4.08674 -0.429456 0.233149
upperneck 4.21222 -0.536175 -1.04921
head 2.00917 -0.290517 -0.385356
rclavicle 2.61899e-014 -5.24792e-014
rhumerus -77.2327 -38.5099 -22.4196
rradius 12.7297
rwrist 36.3236
rhand -14.8667 -34.8576
rfingers 7.12502
rthumb 11.2933 -64.5335
lclavicle 2.61899e-014 -5.24792e-014
lhumerus -21.2398 -1.70008 83.1636
lradius 52.5937
lwrist 18.1021
lhand -26.516 -17.7889
lfingers 7.12502
lthumb 0.047371 12.1908
rfemur -46.6615 -6.7715 29.0858
rtibia 39.1596
rfoot -14.0691 3.92599
rtoes -19.8199
lfemur -16.8903 -0.578308 -15.4897
ltibia 62.5235
lfoot 12.1595 -8.83004
ltoes -14.878
137
root -0.252447 16.2446 -14.4297 18.4541 4.37456 -1.56428
lowerback -15.5434 -1.42578 4.65833
upperback -4.83813 -2.73736 3.31089
thorax 3.51014 -1.34473 0.355649
lowerneck -3.84088 -0.513964 0.452744
upperneck 4.15758 -0.645966 -1.38992
head 1.94546 -0.349456 -0.531582
rclavicle -2.0276e-014 4.21423e-014
rhumerus -73.9628 -38.6001 -26.9805
rradius 13.0667
rwrist 34.229
rhand -14.2608 -35.9884
rfingers 7.12502
rthumb 11.8777 -65.6315
lclavicle -2.0276e-014 4.21423e-014
lhumerus -21.9686 -1.90747 83.8046
lradius 51.0619
lwrist 17.6322
lhand -26.5264 -17.9366
lfingers 7.12502
lthumb 0.0373689 12.0431
rfemur -45.7652 -6.94876 29.2478
rtibia 39.1234
rfoot -14.5101 4.18148
rtoes -17.406
lfemur -18.8392 -0.596716 -15.3321
ltibia 64.652
lfoot 9.45862 -7.50277
ltoes -13.2423
138
root -0.268851 16.2765 -14.2215 18.4339 4.21152 -1.44273
lowerback -15.5134 -1.32979 4.33069
upperback -4.8326 -2.55956 3.31051
thorax 3.51981 -1.25649 0.571209
lowerneck -3.89136 -0.59907 0.44869
upperneck 4.28131 -0.750161 -1.55435
head 1.99367 -0.406163 -0.58676
rclavicle 1.76421e-014 -2.54444e-014
rhumerus -70.6557 -38.5244 -31.3366
rradius 13.3676
rwrist 32.3287
rhand -14.2077 -37.1118
rfingers 7.12502
rthumb 11.9288 -66.7519
lclavicle 1.76421e-014 -2.54444e-014
lhumerus -22.6754 -2.06228 84.4799
lradius 49.4819
lwrist 17.1342
lhand -26.4752 -18.063
lfingers 7.12502
lthumb 0.0867648 11.9167
rfemur -44.8098 -6.88504 29.0877
rtibia 39.0387
rfoot -15.0047 4.11358
rtoes -17.1299
lfemur -20.6155 -0.367335 -15.5534
ltibia 66.643
lfoot 7.19843 -6.44249
ltoes -12.5176
139
root -0.286692 16.306 -14.0179 18.52 4.09023 -1.29752
lowerback -15.5537 -1.21782 3.95936
upperback -4.84832 -2.35593 3.28064
thorax 3.54344 -1.15536 0.783896
lowerneck -4.06098 -0.665219 0.381938
upperneck 4.57847 -0.833024 -1.51769
head 2.12098 -0.449247 -0.569386
rclavicle -1.49089e-016 1.19271e-014
rhumerus -66.9329 -37.9771 -36.3817
rradius 13.7389
rwrist 29.4299
rhand -15.1555 -36.6974
rfingers 7.12502
rthumb 11.0148 -66.3884
lclavicle -1.49089e-016 1.19271e-014
lhumerus -23.3435 -2.33411 85.1216
lradius 47.8503
lwrist 16.732
lhand -26.3309 -17.922
lfingers 7.12502
lthumb 0.226115 12.0577
rfemur -43.9974 -6.74995 28.8838
rtibia 38.9193
rfoot -15.6432 3.86309
rtoes -17.5138
lfemur -22.5646 -0.161375 -15.774
ltibia 68.4405
lfoot 5.54731 -5.72445
ltoes -11.4771
140
root -0.303382 16.3283 -13.8173 18.7018 3.97854 -1.31763
lowerback -15.7234 -1.09274 3.81226
upperback -4.98398 -2.1711 3.27039
thorax 3.49846 -1.06514 0.887355
lowerneck -3.83738 -0.73069 0.396917
upperneck 4.81353 -0.915755 -1.57588
head 2.1565 -0.491749 -0.592894
rclavicle 1.0635e-014 1.11319e-014
rhumerus -62.5405 -36.2175 -42.8414
rradius 14.4749
rwrist 25.02
rhand -15.6578 -36.8525
rfingers 7.12502
rthumb 10.5303 -66.5687
lclavicle 1.0635e-014 1.11319e-014
lhumerus -24.3635 -2.41261 85.6054
lradius 46.2409
lwrist 16.0926
lhand -25.8447 -17.8275
lfingers 7.12502
lthumb 0.695779 12.1511
rfemur -43.2639 -6.4782 28.8362
rtibia 38.7472
rfoot -16.1352 3.52342
rtoes -17.2871
lfemur -24.7095 0.0463804 -15.7952
ltibia 70.0175
lfoot 4.53166 -4.93122
ltoes -9.18115
